# xmcd CD database file
#
# Track frame offsets:
#	150
#	15418
#	27872
#	45945
#	59543
#	73215
#	83966
#	101051
#	115481
#	129233
#	143170
#	156806
#	170688
#	183779
#	199484
#	211544
#	222007
#	234979
#	250402
#	265735
#
# Disc length: 3779 seconds
#
# Revision: 3
# Processed by: cddbd v1.5.2PL0 Copyright (c) Steve Scherf et al.
# Submitted via: CDex 2.12
#
DISCID=160ec114
DTITLE=Various Artist - Acoustic Christmas
DYEAR=1996
DGENRE=Easy Listening
TTITLE0=What Child is This 
TTITLE1=Amazing Grace 
TTITLE2=Jingle Bells 
TTITLE3=Away In A Manger
TTITLE4=Joy To The World 
TTITLE5=Up On A House Top
TTITLE6=Children's Christmas
TTITLE7=I Saw Three Ships (Come Sailing In) 
TTITLE8=O Christmas Tree 
TTITLE9=Softly Falls The Snow 
TTITLE10=The Holly And The Ivy
TTITLE11=It Came Upon A Midnight Clear 
TTITLE12=Let Us All Be Happy 
TTITLE13=Rise Up Shepherd And Follow 
TTITLE14=Jolly Old Saint Nicholas
TTITLE15=Oh My Dearest Augustin
TTITLE16=Ring Little Bell
TTITLE17=Coventry Carol
TTITLE18=Auld Lang Syne 
TTITLE19=All My Heart This Night Rejoices
EXTD=instrumental Christmas music\nanother poorly annotated MasterTone collection from Germany YEAR: 1996
EXTT0=
EXTT1=
EXTT2=
EXTT3=
EXTT4=
EXTT5=
EXTT6=
EXTT7=
EXTT8=
EXTT9=
EXTT10=
EXTT11=
EXTT12=
EXTT13=
EXTT14=
EXTT15=
EXTT16=
EXTT17=
EXTT18=
EXTT19=
PLAYORDER=
